<svg width="147.115mm" height="131.388mm" viewBox="0 0 147.115 131.388" xmlns="http://www.w3.org/2000/svg"><g id="svgGroup" stroke-linecap="round" fill-rule="evenodd" font-size="9pt" stroke="#000" stroke-width="0.25mm" fill="none" style="stroke:#000;stroke-width:0.25mm;fill:none"><path d="M 80 6.8 L 98 6.8 L 98 24.8 L 80 24.8 L 80 6.8 Z M 100 10.3 L 118 10.3 L 118 28.3 L 100 28.3 L 100 10.3 Z M 0 68.2 L 18 68.2 L 18 86.2 L 0 86.2 L 0 68.2 Z M 0 48.2 L 18 48.2 L 18 66.2 L 0 66.2 L 0 48.2 Z M 0 28.2 L 18 28.2 L 18 46.2 L 0 46.2 L 0 28.2 Z M 0 8.2 L 18 8.2 L 18 26.2 L 0 26.2 L 0 8.2 Z M 20 68.2 L 38 68.2 L 38 86.2 L 20 86.2 L 20 68.2 Z M 20 48.2 L 38 48.2 L 38 66.2 L 20 66.2 L 20 48.2 Z M 20 28.2 L 38 28.2 L 38 46.2 L 20 46.2 L 20 28.2 Z M 20 8.2 L 38 8.2 L 38 26.2 L 20 26.2 L 20 8.2 Z M 40 63.5 L 58 63.5 L 58 81.5 L 40 81.5 L 40 63.5 Z M 40 43.5 L 58 43.5 L 58 61.5 L 40 61.5 L 40 43.5 Z M 40 23.5 L 58 23.5 L 58 41.5 L 40 41.5 L 40 23.5 Z M 40 3.5 L 58 3.5 L 58 21.5 L 40 21.5 L 40 3.5 Z M 60 60 L 78 60 L 78 78 L 60 78 L 60 60 Z M 60 40 L 78 40 L 78 58 L 60 58 L 60 40 Z M 60 20 L 78 20 L 78 38 L 60 38 L 60 20 Z M 60 0 L 78 0 L 78 18 L 60 18 L 60 0 Z M 80 66.8 L 98 66.8 L 98 84.8 L 80 84.8 L 80 66.8 Z M 80 46.8 L 98 46.8 L 98 64.8 L 80 64.8 L 80 46.8 Z M 80 26.8 L 98 26.8 L 98 44.8 L 80 44.8 L 80 26.8 Z M 100 70.3 L 118 70.3 L 118 88.3 L 100 88.3 L 100 70.3 Z M 100 50.3 L 118 50.3 L 118 68.3 L 100 68.3 L 100 50.3 Z M 100 30.3 L 118 30.3 L 118 48.3 L 100 48.3 L 100 30.3 Z M 80 86.3 L 98 86.3 L 98 104.3 L 80 104.3 L 80 86.3 Z M 131.526 89.479 L 147.115 98.479 L 138.115 114.068 L 122.526 105.068 L 131.526 89.479 Z M 108.706 89.006 L 124.294 98.006 L 115.294 113.594 L 99.706 104.594 L 108.706 89.006 Z M 121.526 106.8 L 137.115 115.8 L 128.115 131.388 L 112.526 122.388 L 121.526 106.8 Z" vector-effect="non-scaling-stroke"/></g></svg>