<svg width="151.115mm" height="148.388mm" viewBox="0 0 151.115 148.388" xmlns="http://www.w3.org/2000/svg"><g id="svgGroup" stroke-linecap="round" fill-rule="evenodd" font-size="9pt" stroke="#000" stroke-width="0.25mm" fill="none" style="stroke:#000;stroke-width:0.25mm;fill:none"><path d="M 2 103.2 L 40 103.2 A 2 2 0 0 0 42 101.2 L 42 100.5 A 2 2 0 0 1 44 98.5 L 60 98.5 A 2 2 0 0 0 62 96.5 L 62 95 L 78 95 A 2 2 0 0 1 80 97 L 80 119.3 A 2 2 0 0 0 82 121.3 L 100.124 121.3 A 2 2 0 0 1 101.124 121.568 L 114.562 129.326 A 2 2 0 0 1 115.294 132.058 L 112.794 136.388 A 2 2 0 0 0 113.526 139.121 L 129.115 148.121 A 2 2 0 0 0 131.847 147.388 L 150.847 114.479 A 2 2 0 0 0 150.115 111.747 L 134.526 102.747 A 2 2 0 0 0 131.794 103.479 L 128.294 109.542 A 2 2 0 0 1 125.562 110.274 L 121.96 108.194 L 121.96 103.698 A 2 2 0 0 0 122 103.3 L 122 25.3 A 2 2 0 0 0 120 23.3 L 104 23.3 A 2 2 0 0 1 102 21.3 L 102 19.8 L 84 19.8 A 2 2 0 0 1 82 17.8 L 82 15 A 2 2 0 0 0 80 13 L 62 13 A 2 2 0 0 0 61.4 13.092 L 61.4 2 A 2 2 0 0 0 59.4 0 L 2 0 A 2 2 0 0 0 0 2 L 0 101.2 A 2 2 0 0 0 2 103.2 Z" vector-effect="non-scaling-stroke"/></g></svg>