<svg width="151.115mm" height="148.388mm" viewBox="0 0 151.115 148.388" xmlns="http://www.w3.org/2000/svg"><g id="svgGroup" stroke-linecap="round" fill-rule="evenodd" font-size="9pt" stroke="#000" stroke-width="0.25mm" fill="none" style="stroke:#000;stroke-width:0.25mm;fill:none"><path d="M 2 103.2 L 40 103.2 A 2 2 0 0 0 42 101.2 L 42 100.5 A 2 2 0 0 1 44 98.5 L 60 98.5 A 2 2 0 0 0 62 96.5 L 62 95 L 78 95 A 2 2 0 0 1 80 97 L 80 119.3 A 2 2 0 0 0 82 121.3 L 100.124 121.3 A 2 2 0 0 1 101.124 121.568 L 114.562 129.326 A 2 2 0 0 1 115.294 132.058 L 112.794 136.388 A 2 2 0 0 0 113.526 139.121 L 129.115 148.121 A 2 2 0 0 0 131.847 147.388 L 150.847 114.479 A 2 2 0 0 0 150.115 111.747 L 134.526 102.747 A 2 2 0 0 0 131.794 103.479 L 128.294 109.542 A 2 2 0 0 1 125.562 110.274 L 121.96 108.194 L 121.96 103.698 A 2 2 0 0 0 122 103.3 L 122 25.3 A 2 2 0 0 0 120 23.3 L 104 23.3 A 2 2 0 0 1 102 21.3 L 102 19.8 L 84 19.8 A 2 2 0 0 1 82 17.8 L 82 15 A 2 2 0 0 0 80 13 L 62 13 A 2 2 0 0 0 61.4 13.092 L 61.4 2 A 2 2 0 0 0 59.4 0 L 2 0 A 2 2 0 0 0 0 2 L 0 101.2 A 2 2 0 0 0 2 103.2 Z M 4 59.2 L 9 59.2 L 9 61.1 L 13 61.1 L 13 59.2 L 18 59.2 L 18 45.2 L 13 45.2 L 13 43.3 L 9 43.3 L 9 45.2 L 4 45.2 L 4 59.2 Z M 4 39.2 L 9 39.2 L 9 41.1 L 13 41.1 L 13 39.2 L 18 39.2 L 18 25.2 L 13 25.2 L 13 23.3 L 9 23.3 L 9 25.2 L 4 25.2 L 4 39.2 Z M 24 59.2 L 29 59.2 L 29 61.1 L 33 61.1 L 33 59.2 L 38 59.2 L 38 45.2 L 33 45.2 L 33 43.3 L 29 43.3 L 29 45.2 L 24 45.2 L 24 59.2 Z M 24 39.2 L 29 39.2 L 29 41.1 L 33 41.1 L 33 39.2 L 38 39.2 L 38 25.2 L 33 25.2 L 33 23.3 L 29 23.3 L 29 25.2 L 24 25.2 L 24 39.2 Z M 44 94.5 L 49 94.5 L 49 96.4 L 53 96.4 L 53 94.5 L 58 94.5 L 58 80.5 L 53 80.5 L 53 78.6 L 49 78.6 L 49 80.5 L 44 80.5 L 44 94.5 Z M 44 74.5 L 49 74.5 L 49 76.4 L 53 76.4 L 53 74.5 L 58 74.5 L 58 60.5 L 53 60.5 L 53 58.6 L 49 58.6 L 49 60.5 L 44 60.5 L 44 74.5 Z M 44 54.5 L 49 54.5 L 49 56.4 L 53 56.4 L 53 54.5 L 58 54.5 L 58 40.5 L 53 40.5 L 53 38.6 L 49 38.6 L 49 40.5 L 44 40.5 L 44 54.5 Z M 44 34.5 L 49 34.5 L 49 36.4 L 53 36.4 L 53 34.5 L 58 34.5 L 58 20.5 L 53 20.5 L 53 18.6 L 49 18.6 L 49 20.5 L 44 20.5 L 44 34.5 Z M 64 91 L 69 91 L 69 92.9 L 73 92.9 L 73 91 L 78 91 L 78 77 L 73 77 L 73 75.1 L 69 75.1 L 69 77 L 64 77 L 64 91 Z M 64 51 L 69 51 L 69 52.9 L 73 52.9 L 73 51 L 78 51 L 78 37 L 73 37 L 73 35.1 L 69 35.1 L 69 37 L 64 37 L 64 51 Z M 64 31 L 69 31 L 69 32.9 L 73 32.9 L 73 31 L 78 31 L 78 17 L 73 17 L 73 15.1 L 69 15.1 L 69 17 L 64 17 L 64 31 Z M 84 117.3 L 89 117.3 L 89 119.2 L 93 119.2 L 93 117.3 L 98 117.3 L 98 103.3 L 93 103.3 L 93 101.4 L 89 101.4 L 89 103.3 L 84 103.3 L 84 117.3 Z M 4 99.2 L 9 99.2 L 9 101.1 L 13 101.1 L 13 99.2 L 18 99.2 L 18 85.2 L 13 85.2 L 13 83.3 L 9 83.3 L 9 85.2 L 4 85.2 L 4 99.2 Z M 4 79.2 L 9 79.2 L 9 81.1 L 13 81.1 L 13 79.2 L 18 79.2 L 18 65.2 L 13 65.2 L 13 63.3 L 9 63.3 L 9 65.2 L 4 65.2 L 4 79.2 Z M 24 99.2 L 29 99.2 L 29 101.1 L 33 101.1 L 33 99.2 L 38 99.2 L 38 85.2 L 33 85.2 L 33 83.3 L 29 83.3 L 29 85.2 L 24 85.2 L 24 99.2 Z M 24 79.2 L 29 79.2 L 29 81.1 L 33 81.1 L 33 79.2 L 38 79.2 L 38 65.2 L 33 65.2 L 33 63.3 L 29 63.3 L 29 65.2 L 24 65.2 L 24 79.2 Z M 64 71 L 69 71 L 69 72.9 L 73 72.9 L 73 71 L 78 71 L 78 57 L 73 57 L 73 55.1 L 69 55.1 L 69 57 L 64 57 L 64 71 Z M 84 97.8 L 89 97.8 L 89 99.7 L 93 99.7 L 93 97.8 L 98 97.8 L 98 83.8 L 93 83.8 L 93 81.9 L 89 81.9 L 89 83.8 L 84 83.8 L 84 97.8 Z M 84 77.8 L 89 77.8 L 89 79.7 L 93 79.7 L 93 77.8 L 98 77.8 L 98 63.8 L 93 63.8 L 93 61.9 L 89 61.9 L 89 63.8 L 84 63.8 L 84 77.8 Z M 84 57.8 L 89 57.8 L 89 59.7 L 93 59.7 L 93 57.8 L 98 57.8 L 98 43.8 L 93 43.8 L 93 41.9 L 89 41.9 L 89 43.8 L 84 43.8 L 84 57.8 Z M 84 37.8 L 89 37.8 L 89 39.7 L 93 39.7 L 93 37.8 L 98 37.8 L 98 23.8 L 93 23.8 L 93 21.9 L 89 21.9 L 89 23.8 L 84 23.8 L 84 37.8 Z M 104 101.3 L 109 101.3 L 109 103.2 L 113 103.2 L 113 101.3 L 118 101.3 L 118 87.3 L 113 87.3 L 113 85.4 L 109 85.4 L 109 87.3 L 104 87.3 L 104 101.3 Z M 104 81.3 L 109 81.3 L 109 83.2 L 113 83.2 L 113 81.3 L 118 81.3 L 118 67.3 L 113 67.3 L 113 65.4 L 109 65.4 L 109 67.3 L 104 67.3 L 104 81.3 Z M 104 61.3 L 109 61.3 L 109 63.2 L 113 63.2 L 113 61.3 L 118 61.3 L 118 47.3 L 113 47.3 L 113 45.4 L 109 45.4 L 109 47.3 L 104 47.3 L 104 61.3 Z M 104 41.3 L 109 41.3 L 109 43.2 L 113 43.2 L 113 41.3 L 118 41.3 L 118 27.3 L 113 27.3 L 113 25.4 L 109 25.4 L 109 27.3 L 104 27.3 L 104 41.3 Z M 117.258 136.656 L 121.588 139.156 L 120.638 140.802 L 124.103 142.802 L 125.053 141.156 L 129.383 143.656 L 136.383 131.532 L 132.053 129.032 L 133.003 127.387 L 129.538 125.387 L 128.588 127.032 L 124.258 124.532 L 117.258 136.656 Z M 104.438 118.862 L 108.768 121.362 L 107.818 123.008 L 111.282 125.008 L 112.232 123.362 L 116.562 125.862 L 123.562 113.738 L 119.232 111.238 L 120.182 109.592 L 116.718 107.592 L 115.768 109.238 L 111.438 106.738 L 104.438 118.862 Z M 127.258 119.336 L 131.588 121.836 L 130.638 123.481 L 134.103 125.481 L 135.053 123.836 L 139.383 126.336 L 146.383 114.212 L 142.053 111.712 L 143.003 110.066 L 139.538 108.066 L 138.588 109.712 L 134.258 107.212 L 127.258 119.336 Z" vector-effect="non-scaling-stroke"/></g></svg>