0
SECTION
2
HEADER
9
$INSUNITS
70
4
0
ENDSEC
0
SECTION
2
TABLES
0
TABLE
2
LTYPE
0
LTYPE
72
65
70
64
2
CONTINUOUS
3
______
73
0
40
0
0
ENDTAB
0
TABLE
2
LAYER
0
ENDTAB
0
ENDSEC
0
SECTION
2
ENTITIES
0
LINE
8
0
10
-9
20
-11
11
29
21
-11
0
LINE
8
0
10
-11
20
-9
11
-11
21
90.2
0
LINE
8
0
10
31
20
-9
11
31
21
-8.3
0
LINE
8
0
10
33
20
-6.3
11
49
21
-6.3
0
LINE
8
0
10
51
20
-4.3
11
51
21
-2.8
0
LINE
8
0
10
51
20
-2.8
11
67
21
-2.8
0
LINE
8
0
10
71
20
74.4
11
71
21
77.2
0
LINE
8
0
10
69
20
79.2
11
51
21
79.2
0
LINE
8
0
10
69
20
-27.1
11
69
21
-4.8
0
LINE
8
0
10
91
20
70.9
11
91
21
72.4
0
LINE
8
0
10
91
20
72.4
11
73
21
72.4
0
LINE
8
0
10
111
20
-11.1
11
111
21
66.9
0
LINE
8
0
10
109
20
68.9
11
93
21
68.9
0
LINE
8
0
10
71
20
-29.1
11
89.1243558
21
-29.1
0
LINE
8
0
10
90.1243558
20
-29.3679492
11
103.5621779
21
-37.1262794
0
LINE
8
0
10
114.5621779
20
-18.0737206
11
110.96
21
-15.9940023
0
LINE
8
0
10
102.5262795
20
-46.920508
11
118.1147367
21
-55.920508
0
LINE
8
0
10
120.8467875
20
-55.1884572
11
139.8467875
21
-22.279492
0
LINE
8
0
10
104.2942287
20
-39.8583302
11
101.7942287
21
-44.1884572
0
LINE
8
0
10
139.1147367
20
-19.5474412
11
123.5262795
21
-10.5474412
0
LINE
8
0
10
120.7942287
20
-11.279492
11
117.2942287
21
-17.3416698
0
ARC
8
0
10
29
20
-9
40
2
50
270
51
0
0
ARC
8
0
10
33
20
-8.3
40
2
50
90
51
180
0
ARC
8
0
10
49
20
-4.3
40
2
50
270
51
0
0
ARC
8
0
10
67
20
-4.8
40
2
50
0
51
90
0
ARC
8
0
10
71
20
-27.1
40
2
50
180
51
270
0
ARC
8
0
10
89.1243558
20
-31.1
40
2
50
59.9999999
51
90
0
ARC
8
0
10
102.5621779
20
-38.8583302
40
2
50
329.9999999
51
59.9999999
0
ARC
8
0
10
103.5262795
20
-45.1884572
40
2
50
149.9999999
51
239.9999999
0
ARC
8
0
10
119.1147367
20
-54.1884572
40
2
50
239.9999999
51
329.9999999
0
ARC
8
0
10
138.1147367
20
-21.279492
40
2
50
329.9999999
51
59.9999999
0
ARC
8
0
10
122.5262795
20
-12.279492
40
2
50
59.9999999
51
149.9999999
0
ARC
8
0
10
115.5621779
20
-16.3416698
40
2
50
239.9999999
51
329.9999999
0
ARC
8
0
10
109
20
-11.1
40
2
50
348.5216583
51
0
0
ARC
8
0
10
109
20
66.9
40
2
50
0
51
90
0
ARC
8
0
10
93
20
70.9
40
2
50
180
51
270
0
ARC
8
0
10
73
20
74.4
40
2
50
180
51
270
0
ARC
8
0
10
69
20
77.2
40
2
50
0
51
90
0
ARC
8
0
10
51
20
77.2
40
2
50
90
51
107.4576031
0
ARC
8
0
10
-9
20
-9
40
2
50
180
51
270
0
LINE
8
0
10
50.4
20
79.1078784
11
50.4
21
90.2
0
LINE
8
0
10
48.4
20
92.2
11
-9
21
92.2
0
ARC
8
0
10
48.4
20
90.2
40
2
50
0
51
90
0
ARC
8
0
10
-9
20
90.2
40
2
50
90
51
180
0
LINE
8
0
10
110.96
20
-11.497995
11
110.96
21
-15.9940023
0
ENDSEC
0
EOF