<svg width="151.115mm" height="148.388mm" viewBox="0 0 151.115 148.388" xmlns="http://www.w3.org/2000/svg"><g id="svgGroup" stroke-linecap="round" fill-rule="evenodd" font-size="9pt" stroke="#000" stroke-width="0.25mm" fill="none" style="stroke:#000;stroke-width:0.25mm;fill:none"><path d="M 2 103.2 L 40 103.2 A 2 2 0 0 0 42 101.2 L 42 100.5 A 2 2 0 0 1 44 98.5 L 60 98.5 A 2 2 0 0 0 62 96.5 L 62 95 L 78 95 A 2 2 0 0 1 80 97 L 80 119.3 A 2 2 0 0 0 82 121.3 L 100.124 121.3 A 2 2 0 0 1 101.124 121.568 L 114.562 129.326 A 2 2 0 0 1 115.294 132.058 L 112.794 136.388 A 2 2 0 0 0 113.526 139.121 L 129.115 148.121 A 2 2 0 0 0 131.847 147.388 L 150.847 114.479 A 2 2 0 0 0 150.115 111.747 L 134.526 102.747 A 2 2 0 0 0 131.794 103.479 L 128.294 109.542 A 2 2 0 0 1 125.562 110.274 L 121.96 108.194 L 121.96 103.698 A 2 2 0 0 0 122 103.3 L 122 25.3 A 2 2 0 0 0 120 23.3 L 104 23.3 A 2 2 0 0 1 102 21.3 L 102 19.8 L 84 19.8 A 2 2 0 0 1 82 17.8 L 82 15 A 2 2 0 0 0 80 13 L 62 13 A 2 2 0 0 0 61.4 13.092 L 61.4 2 A 2 2 0 0 0 59.4 0 L 2 0 A 2 2 0 0 0 0 2 L 0 101.2 A 2 2 0 0 0 2 103.2 Z M 102.047 119.503 L 117.203 128.253 L 125.953 113.097 L 110.797 104.347 L 102.047 119.503 Z M 114.868 137.297 L 130.023 146.047 L 138.773 130.892 L 123.618 122.142 L 114.868 137.297 Z M 124.868 119.976 L 140.023 128.726 L 148.773 113.571 L 133.618 104.821 L 124.868 119.976 Z M 82.25 39.55 L 99.75 39.55 L 99.75 22.05 L 82.25 22.05 L 82.25 39.55 Z M 102.25 43.05 L 119.75 43.05 L 119.75 25.55 L 102.25 25.55 L 102.25 43.05 Z M 2.25 100.95 L 19.75 100.95 L 19.75 83.45 L 2.25 83.45 L 2.25 100.95 Z M 2.25 80.95 L 19.75 80.95 L 19.75 63.45 L 2.25 63.45 L 2.25 80.95 Z M 2.25 60.95 L 19.75 60.95 L 19.75 43.45 L 2.25 43.45 L 2.25 60.95 Z M 2.25 40.95 L 19.75 40.95 L 19.75 23.45 L 2.25 23.45 L 2.25 40.95 Z M 22.25 100.95 L 39.75 100.95 L 39.75 83.45 L 22.25 83.45 L 22.25 100.95 Z M 22.25 80.95 L 39.75 80.95 L 39.75 63.45 L 22.25 63.45 L 22.25 80.95 Z M 22.25 60.95 L 39.75 60.95 L 39.75 43.45 L 22.25 43.45 L 22.25 60.95 Z M 22.25 40.95 L 39.75 40.95 L 39.75 23.45 L 22.25 23.45 L 22.25 40.95 Z M 42.25 96.25 L 59.75 96.25 L 59.75 78.75 L 42.25 78.75 L 42.25 96.25 Z M 42.25 76.25 L 59.75 76.25 L 59.75 58.75 L 42.25 58.75 L 42.25 76.25 Z M 42.25 56.25 L 59.75 56.25 L 59.75 38.75 L 42.25 38.75 L 42.25 56.25 Z M 42.25 36.25 L 59.75 36.25 L 59.75 18.75 L 42.25 18.75 L 42.25 36.25 Z M 62.25 92.75 L 79.75 92.75 L 79.75 75.25 L 62.25 75.25 L 62.25 92.75 Z M 62.25 72.75 L 79.75 72.75 L 79.75 55.25 L 62.25 55.25 L 62.25 72.75 Z M 62.25 52.75 L 79.75 52.75 L 79.75 35.25 L 62.25 35.25 L 62.25 52.75 Z M 62.25 32.75 L 79.75 32.75 L 79.75 15.25 L 62.25 15.25 L 62.25 32.75 Z M 82.25 99.55 L 99.75 99.55 L 99.75 82.05 L 82.25 82.05 L 82.25 99.55 Z M 82.25 79.55 L 99.75 79.55 L 99.75 62.05 L 82.25 62.05 L 82.25 79.55 Z M 82.25 59.55 L 99.75 59.55 L 99.75 42.05 L 82.25 42.05 L 82.25 59.55 Z M 102.25 103.05 L 119.75 103.05 L 119.75 85.55 L 102.25 85.55 L 102.25 103.05 Z M 102.25 83.05 L 119.75 83.05 L 119.75 65.55 L 102.25 65.55 L 102.25 83.05 Z M 102.25 63.05 L 119.75 63.05 L 119.75 45.55 L 102.25 45.55 L 102.25 63.05 Z M 82.25 119.05 L 99.75 119.05 L 99.75 101.55 L 82.25 101.55 L 82.25 119.05 Z" vector-effect="non-scaling-stroke"/></g></svg>