M48
; DRILL file {KiCad 9.0.7} date 2026-03-10T20:41:36+0100
; FORMAT={-:-/ absolute / metric / decimal}
; #@! TF.CreationDate,2026-03-10T20:41:36+01:00
; #@! TF.GenerationSoftware,Kicad,Pcbnew,9.0.7
; #@! TF.FileFunction,NonPlated,1,2,NPTH
FMAT,2
METRIC
; #@! TA.AperFunction,NonPlated,NPTH,ComponentDrill
T1C1.500
; #@! TA.AperFunction,NonPlated,NPTH,ComponentDrill
T2C1.900
; #@! TA.AperFunction,NonPlated,NPTH,ComponentDrill
T3C3.000
; #@! TA.AperFunction,NonPlated,NPTH,ComponentDrill
T4C5.000
%
G90
G05
T1
X148.575Y-67.35
X155.575Y-67.35
T2
X101.775Y-93.95
X101.775Y-113.95
X101.775Y-133.95
X101.775Y-153.95
X112.775Y-93.95
X112.775Y-113.95
X112.775Y-133.95
X112.775Y-153.95
X121.775Y-93.95
X121.775Y-113.95
X121.775Y-133.95
X121.775Y-153.95
X132.775Y-93.95
X132.775Y-113.95
X132.775Y-133.95
X132.775Y-153.95
X141.775Y-89.25
X141.775Y-109.25
X141.775Y-129.25
X141.775Y-149.25
X152.775Y-89.25
X152.775Y-109.25
X152.775Y-129.25
X152.775Y-149.25
X161.775Y-85.75
X161.775Y-105.75
X161.775Y-125.75
X161.775Y-145.75
X172.775Y-85.75
X172.775Y-105.75
X172.775Y-125.75
X172.775Y-145.75
X181.775Y-92.55
X181.775Y-112.55
X181.775Y-132.55
X181.775Y-152.55
X181.775Y-172.05
X192.775Y-92.55
X192.775Y-112.55
X192.775Y-132.55
X192.775Y-152.55
X192.775Y-172.05
X201.775Y-96.05
X201.775Y-116.05
X201.775Y-136.05
X201.775Y-156.05
X205.512Y-175.3
X212.775Y-96.05
X212.775Y-116.05
X212.775Y-136.05
X212.775Y-156.05
X215.038Y-180.8
X218.332Y-193.094
X227.859Y-198.594
X228.332Y-175.774
X237.859Y-181.274
T3
X102.275Y-97.7
X102.275Y-117.7
X102.275Y-137.7
X102.275Y-157.7
X107.275Y-99.9
X107.275Y-119.9
X107.275Y-139.9
X107.275Y-159.9
X112.275Y-97.7
X112.275Y-117.7
X112.275Y-137.7
X112.275Y-157.7
X122.275Y-97.7
X122.275Y-117.7
X122.275Y-137.7
X122.275Y-157.7
X127.275Y-99.9
X127.275Y-119.9
X127.275Y-139.9
X127.275Y-159.9
X132.275Y-97.7
X132.275Y-117.7
X132.275Y-137.7
X132.275Y-157.7
X142.275Y-93.0
X142.275Y-113.0
X142.275Y-133.0
X142.275Y-153.0
X147.275Y-95.2
X147.275Y-115.2
X147.275Y-135.2
X147.275Y-155.2
X152.275Y-93.0
X152.275Y-113.0
X152.275Y-133.0
X152.275Y-153.0
X162.275Y-89.5
X162.275Y-109.5
X162.275Y-129.5
X162.275Y-149.5
X167.275Y-91.7
X167.275Y-111.7
X167.275Y-131.7
X167.275Y-151.7
X172.275Y-89.5
X172.275Y-109.5
X172.275Y-129.5
X172.275Y-149.5
X182.275Y-96.3
X182.275Y-116.3
X182.275Y-136.3
X182.275Y-156.3
X182.275Y-175.8
X187.275Y-98.5
X187.275Y-118.5
X187.275Y-138.5
X187.275Y-158.5
X187.275Y-178.0
X192.275Y-96.3
X192.275Y-116.3
X192.275Y-136.3
X192.275Y-156.3
X192.275Y-175.8
X202.275Y-99.8
X202.275Y-119.8
X202.275Y-139.8
X202.275Y-159.8
X204.07Y-178.798
X207.275Y-102.0
X207.275Y-122.0
X207.275Y-142.0
X207.275Y-162.0
X207.3Y-183.203
X212.275Y-99.8
X212.275Y-119.8
X212.275Y-139.8
X212.275Y-159.8
X212.73Y-183.798
X216.89Y-196.592
X220.121Y-200.997
X225.551Y-201.592
X226.89Y-179.271
X230.121Y-183.677
X235.551Y-184.271
T4
X107.275Y-93.95
X107.275Y-113.95
X107.275Y-133.95
X107.275Y-153.95
X127.275Y-93.95
X127.275Y-113.95
X127.275Y-133.95
X127.275Y-153.95
X147.275Y-89.25
X147.275Y-109.25
X147.275Y-129.25
X147.275Y-149.25
X167.275Y-85.75
X167.275Y-105.75
X167.275Y-125.75
X167.275Y-145.75
X187.275Y-92.55
X187.275Y-112.55
X187.275Y-132.55
X187.275Y-152.55
X187.275Y-172.05
X207.275Y-96.05
X207.275Y-116.05
X207.275Y-136.05
X207.275Y-156.05
X210.275Y-178.05
X223.096Y-195.844
X233.096Y-178.524
M30
