M48
; DRILL file {KiCad 9.0.7} date 2026-03-10T20:41:36+0100
; FORMAT={-:-/ absolute / metric / decimal}
; #@! TF.CreationDate,2026-03-10T20:41:36+01:00
; #@! TF.GenerationSoftware,Kicad,Pcbnew,9.0.7
; #@! TF.FileFunction,Plated,1,2,PTH
FMAT,2
METRIC
; #@! TA.AperFunction,Plated,PTH,ViaDrill
T1C0.300
; #@! TA.AperFunction,Plated,PTH,ComponentDrill
T2C0.900
; #@! TA.AperFunction,Plated,PTH,ComponentDrill
T3C0.991
; #@! TA.AperFunction,Plated,PTH,ComponentDrill
T4C1.092
; #@! TA.AperFunction,Plated,PTH,ComponentDrill
T5C1.600
%
G90
G05
T1
X97.4Y-123.5
X97.601Y-143.399
X99.95Y-123.45
X100.0Y-143.45
X107.275Y-97.025
X107.275Y-97.825
X107.275Y-117.025
X107.275Y-117.825
X107.275Y-137.025
X107.275Y-137.825
X107.275Y-157.025
X107.275Y-157.825
X127.275Y-97.025
X127.275Y-97.825
X127.275Y-117.025
X127.275Y-117.825
X127.275Y-137.025
X127.275Y-137.825
X127.275Y-157.025
X127.275Y-157.825
X136.5Y-62.5
X136.5Y-64.2
X147.275Y-92.325
X147.275Y-93.125
X147.275Y-112.325
X147.275Y-113.125
X147.275Y-132.325
X147.275Y-133.125
X147.275Y-152.325
X147.275Y-153.125
X167.275Y-88.825
X167.275Y-89.625
X167.275Y-108.825
X167.275Y-109.625
X167.275Y-128.825
X167.275Y-129.625
X167.275Y-148.825
X167.275Y-149.625
X179.0Y-152.0
X179.0Y-159.0
X187.275Y-95.625
X187.275Y-96.425
X187.275Y-115.625
X187.275Y-116.425
X187.275Y-135.625
X187.275Y-136.425
X187.275Y-155.625
X187.275Y-156.425
X187.275Y-175.125
X187.275Y-175.925
X207.275Y-99.125
X207.275Y-99.925
X207.275Y-119.125
X207.275Y-119.925
X207.275Y-139.125
X207.275Y-139.925
X207.275Y-159.125
X207.275Y-159.925
X208.337Y-181.406
X208.737Y-180.713
X221.158Y-199.2
X221.558Y-198.507
X231.158Y-181.88
X231.558Y-181.187
T3
X103.465Y-103.45
X103.465Y-123.45
X103.465Y-143.45
X103.465Y-163.45
X111.085Y-103.45
X111.085Y-123.45
X111.085Y-143.45
X111.085Y-163.45
X123.465Y-103.45
X123.465Y-123.45
X123.465Y-143.45
X123.465Y-163.45
X131.085Y-103.45
X131.085Y-123.45
X131.085Y-143.45
X131.085Y-163.45
X143.465Y-98.75
X143.465Y-118.75
X143.465Y-138.75
X143.465Y-158.75
X151.085Y-98.75
X151.085Y-118.75
X151.085Y-138.75
X151.085Y-158.75
X163.465Y-95.25
X163.465Y-115.25
X163.465Y-135.25
X163.465Y-155.25
X171.085Y-95.25
X171.085Y-115.25
X171.085Y-135.25
X171.085Y-155.25
X183.465Y-102.05
X183.465Y-122.05
X183.465Y-142.05
X183.465Y-162.05
X183.465Y-181.55
X191.085Y-102.05
X191.085Y-122.05
X191.085Y-142.05
X191.085Y-162.05
X191.085Y-181.55
X202.225Y-184.372
X203.465Y-105.55
X203.465Y-125.55
X203.465Y-145.55
X203.465Y-165.55
X208.825Y-188.182
X211.085Y-105.55
X211.085Y-125.55
X211.085Y-145.55
X211.085Y-165.55
X215.046Y-202.166
X221.645Y-205.976
X225.046Y-184.846
X231.645Y-188.656
T4
X101.605Y-65.73
X101.605Y-80.97
X104.145Y-65.73
X104.145Y-80.97
X106.685Y-65.73
X106.685Y-80.97
X109.225Y-65.73
X109.225Y-80.97
X111.765Y-65.73
X111.765Y-80.97
X114.305Y-65.73
X114.305Y-80.97
X116.845Y-65.73
X116.845Y-80.97
X119.385Y-65.73
X119.385Y-80.97
X121.925Y-65.73
X121.925Y-80.97
X124.465Y-65.73
X124.465Y-80.97
X127.005Y-65.73
X127.005Y-80.97
X129.545Y-65.73
X129.545Y-80.97
T5
X102.275Y-88.8
X102.275Y-108.8
X102.275Y-128.8
X102.275Y-148.8
X112.275Y-88.8
X112.275Y-108.8
X112.275Y-128.8
X112.275Y-148.8
X122.275Y-88.8
X122.275Y-108.8
X122.275Y-128.8
X122.275Y-148.8
X132.275Y-88.8
X132.275Y-108.8
X132.275Y-128.8
X132.275Y-148.8
X142.275Y-84.1
X142.275Y-104.1
X142.275Y-124.1
X142.275Y-144.1
X152.275Y-84.1
X152.275Y-104.1
X152.275Y-124.1
X152.275Y-144.1
X162.275Y-80.6
X162.275Y-100.6
X162.275Y-120.6
X162.275Y-140.6
X172.275Y-80.6
X172.275Y-100.6
X172.275Y-120.6
X172.275Y-140.6
X182.275Y-87.4
X182.275Y-107.4
X182.275Y-127.4
X182.275Y-147.4
X182.275Y-166.9
X192.275Y-87.4
X192.275Y-107.4
X192.275Y-127.4
X192.275Y-147.4
X192.275Y-166.9
X202.275Y-90.9
X202.275Y-110.9
X202.275Y-130.9
X202.275Y-150.9
X208.52Y-171.09
X212.275Y-90.9
X212.275Y-110.9
X212.275Y-130.9
X212.275Y-150.9
X217.18Y-176.09
X221.34Y-188.884
X230.001Y-193.884
X231.34Y-171.564
X240.001Y-176.564
T2
G00X146.175Y-65.05
M15
G01X145.575Y-65.05
M16
G05
G00X146.175Y-69.65
M15
G01X145.575Y-69.65
M16
G05
G00X147.275Y-65.05
M15
G01X146.675Y-65.05
M16
G05
G00X147.275Y-69.65
M15
G01X146.675Y-69.65
M16
G05
G00X151.275Y-65.05
M15
G01X150.675Y-65.05
M16
G05
G00X151.275Y-69.65
M15
G01X150.675Y-69.65
M16
G05
G00X154.275Y-65.05
M15
G01X153.675Y-65.05
M16
G05
G00X154.275Y-69.65
M15
G01X153.675Y-69.65
M16
G05
M30
