0
SECTION
2
HEADER
9
$INSUNITS
70
4
0
ENDSEC
0
SECTION
2
TABLES
0
TABLE
2
LTYPE
0
LTYPE
72
65
70
0
2
CONTINUOUS
3
______
73
0
40
0
0
LTYPE
72
65
70
0
2
DASHED
3
_ _ _ 
73
2
40
7.5
49
5
49
-2.5
0
LTYPE
72
65
70
0
2
DOTTED
3
. . . 
73
2
40
1.5
49
0.5
49
-1
0
ENDTAB
0
TABLE
2
LAYER
0
ENDTAB
0
ENDSEC
0
SECTION
2
ENTITIES
0
LINE
8
0
6
CONTINUOUS
10
-9
20
-11
11
29
21
-11
0
LINE
8
0
6
CONTINUOUS
10
-11
20
-9
11
-11
21
90.2
0
LINE
8
0
6
CONTINUOUS
10
31
20
-9
11
31
21
-8.3
0
LINE
8
0
6
CONTINUOUS
10
33
20
-6.3
11
49
21
-6.3
0
LINE
8
0
6
CONTINUOUS
10
51
20
-4.3
11
51
21
-2.8
0
LINE
8
0
6
CONTINUOUS
10
51
20
-2.8
11
67
21
-2.8
0
LINE
8
0
6
CONTINUOUS
10
71
20
74.4
11
71
21
77.2
0
LINE
8
0
6
CONTINUOUS
10
69
20
79.2
11
51
21
79.2
0
LINE
8
0
6
CONTINUOUS
10
69
20
-27.1
11
69
21
-4.8
0
LINE
8
0
6
CONTINUOUS
10
91
20
70.9
11
91
21
72.4
0
LINE
8
0
6
CONTINUOUS
10
91
20
72.4
11
73
21
72.4
0
LINE
8
0
6
CONTINUOUS
10
111
20
-11.1
11
111
21
66.9
0
LINE
8
0
6
CONTINUOUS
10
109
20
68.9
11
93
21
68.9
0
LINE
8
0
6
CONTINUOUS
10
71
20
-29.1
11
89.1243558
21
-29.1
0
LINE
8
0
6
CONTINUOUS
10
90.1243558
20
-29.3679492
11
103.5621779
21
-37.1262794
0
LINE
8
0
6
CONTINUOUS
10
114.5621779
20
-18.0737206
11
110.96
21
-15.9940023
0
LINE
8
0
6
CONTINUOUS
10
102.5262795
20
-46.920508
11
118.1147367
21
-55.920508
0
LINE
8
0
6
CONTINUOUS
10
120.8467875
20
-55.1884572
11
139.8467875
21
-22.279492
0
LINE
8
0
6
CONTINUOUS
10
104.2942287
20
-39.8583302
11
101.7942287
21
-44.1884572
0
LINE
8
0
6
CONTINUOUS
10
139.1147367
20
-19.5474412
11
123.5262795
21
-10.5474412
0
LINE
8
0
6
CONTINUOUS
10
120.7942287
20
-11.279492
11
117.2942287
21
-17.3416698
0
ARC
8
0
6
CONTINUOUS
10
29
20
-9
40
2
50
270
51
0
0
ARC
8
0
6
CONTINUOUS
10
33
20
-8.3
40
2
50
90
51
180
0
ARC
8
0
6
CONTINUOUS
10
49
20
-4.3
40
2
50
270
51
0
0
ARC
8
0
6
CONTINUOUS
10
67
20
-4.8
40
2
50
0
51
90
0
ARC
8
0
6
CONTINUOUS
10
71
20
-27.1
40
2
50
180
51
270
0
ARC
8
0
6
CONTINUOUS
10
89.1243558
20
-31.1
40
2
50
59.9999999
51
90
0
ARC
8
0
6
CONTINUOUS
10
102.5621779
20
-38.8583302
40
2
50
329.9999999
51
59.9999999
0
ARC
8
0
6
CONTINUOUS
10
103.5262795
20
-45.1884572
40
2
50
149.9999999
51
239.9999999
0
ARC
8
0
6
CONTINUOUS
10
119.1147367
20
-54.1884572
40
2
50
239.9999999
51
329.9999999
0
ARC
8
0
6
CONTINUOUS
10
138.1147367
20
-21.279492
40
2
50
329.9999999
51
59.9999999
0
ARC
8
0
6
CONTINUOUS
10
122.5262795
20
-12.279492
40
2
50
59.9999999
51
149.9999999
0
ARC
8
0
6
CONTINUOUS
10
115.5621779
20
-16.3416698
40
2
50
239.9999999
51
329.9999999
0
ARC
8
0
6
CONTINUOUS
10
109
20
-11.1
40
2
50
348.5216583
51
0
0
ARC
8
0
6
CONTINUOUS
10
109
20
66.9
40
2
50
0
51
90
0
ARC
8
0
6
CONTINUOUS
10
93
20
70.9
40
2
50
180
51
270
0
ARC
8
0
6
CONTINUOUS
10
73
20
74.4
40
2
50
180
51
270
0
ARC
8
0
6
CONTINUOUS
10
69
20
77.2
40
2
50
0
51
90
0
ARC
8
0
6
CONTINUOUS
10
51
20
77.2
40
2
50
90
51
107.4576031
0
ARC
8
0
6
CONTINUOUS
10
-9
20
-9
40
2
50
180
51
270
0
LINE
8
0
6
CONTINUOUS
10
50.4
20
79.1078784
11
50.4
21
90.2
0
LINE
8
0
6
CONTINUOUS
10
48.4
20
92.2
11
-9
21
92.2
0
ARC
8
0
6
CONTINUOUS
10
48.4
20
90.2
40
2
50
0
51
90
0
ARC
8
0
6
CONTINUOUS
10
-9
20
90.2
40
2
50
90
51
180
0
LINE
8
0
6
CONTINUOUS
10
110.96
20
-11.497995
11
110.96
21
-15.9940023
0
LINE
8
0
6
CONTINUOUS
10
-7
20
-7
11
7
21
-7
0
LINE
8
0
6
CONTINUOUS
10
7
20
-7
11
7
21
7
0
LINE
8
0
6
CONTINUOUS
10
7
20
7
11
-7
21
7
0
LINE
8
0
6
CONTINUOUS
10
-7
20
7
11
-7
21
-7
0
LINE
8
0
6
CONTINUOUS
10
-7
20
13
11
7
21
13
0
LINE
8
0
6
CONTINUOUS
10
7
20
13
11
7
21
27
0
LINE
8
0
6
CONTINUOUS
10
7
20
27
11
-7
21
27
0
LINE
8
0
6
CONTINUOUS
10
-7
20
27
11
-7
21
13
0
LINE
8
0
6
CONTINUOUS
10
-7
20
33
11
7
21
33
0
LINE
8
0
6
CONTINUOUS
10
7
20
33
11
7
21
47
0
LINE
8
0
6
CONTINUOUS
10
7
20
47
11
-7
21
47
0
LINE
8
0
6
CONTINUOUS
10
-7
20
47
11
-7
21
33
0
LINE
8
0
6
CONTINUOUS
10
-7
20
53
11
7
21
53
0
LINE
8
0
6
CONTINUOUS
10
7
20
53
11
7
21
67
0
LINE
8
0
6
CONTINUOUS
10
7
20
67
11
-7
21
67
0
LINE
8
0
6
CONTINUOUS
10
-7
20
67
11
-7
21
53
0
LINE
8
0
6
CONTINUOUS
10
13
20
-7
11
27
21
-7
0
LINE
8
0
6
CONTINUOUS
10
27
20
-7
11
27
21
7
0
LINE
8
0
6
CONTINUOUS
10
27
20
7
11
13
21
7
0
LINE
8
0
6
CONTINUOUS
10
13
20
7
11
13
21
-7
0
LINE
8
0
6
CONTINUOUS
10
13
20
13
11
27
21
13
0
LINE
8
0
6
CONTINUOUS
10
27
20
13
11
27
21
27
0
LINE
8
0
6
CONTINUOUS
10
27
20
27
11
13
21
27
0
LINE
8
0
6
CONTINUOUS
10
13
20
27
11
13
21
13
0
LINE
8
0
6
CONTINUOUS
10
13
20
33
11
27
21
33
0
LINE
8
0
6
CONTINUOUS
10
27
20
33
11
27
21
47
0
LINE
8
0
6
CONTINUOUS
10
27
20
47
11
13
21
47
0
LINE
8
0
6
CONTINUOUS
10
13
20
47
11
13
21
33
0
LINE
8
0
6
CONTINUOUS
10
13
20
53
11
27
21
53
0
LINE
8
0
6
CONTINUOUS
10
27
20
53
11
27
21
67
0
LINE
8
0
6
CONTINUOUS
10
27
20
67
11
13
21
67
0
LINE
8
0
6
CONTINUOUS
10
13
20
67
11
13
21
53
0
LINE
8
0
6
CONTINUOUS
10
33
20
-2.3
11
47
21
-2.3
0
LINE
8
0
6
CONTINUOUS
10
47
20
-2.3
11
47
21
11.7
0
LINE
8
0
6
CONTINUOUS
10
47
20
11.7
11
33
21
11.7
0
LINE
8
0
6
CONTINUOUS
10
33
20
11.7
11
33
21
-2.3
0
LINE
8
0
6
CONTINUOUS
10
33
20
17.7
11
47
21
17.7
0
LINE
8
0
6
CONTINUOUS
10
47
20
17.7
11
47
21
31.7
0
LINE
8
0
6
CONTINUOUS
10
47
20
31.7
11
33
21
31.7
0
LINE
8
0
6
CONTINUOUS
10
33
20
31.7
11
33
21
17.7
0
LINE
8
0
6
CONTINUOUS
10
33
20
37.7
11
47
21
37.7
0
LINE
8
0
6
CONTINUOUS
10
47
20
37.7
11
47
21
51.7
0
LINE
8
0
6
CONTINUOUS
10
47
20
51.7
11
33
21
51.7
0
LINE
8
0
6
CONTINUOUS
10
33
20
51.7
11
33
21
37.7
0
LINE
8
0
6
CONTINUOUS
10
33
20
57.7
11
47
21
57.7
0
LINE
8
0
6
CONTINUOUS
10
47
20
57.7
11
47
21
71.7
0
LINE
8
0
6
CONTINUOUS
10
47
20
71.7
11
33
21
71.7
0
LINE
8
0
6
CONTINUOUS
10
33
20
71.7
11
33
21
57.7
0
LINE
8
0
6
CONTINUOUS
10
53
20
1.2
11
67
21
1.2
0
LINE
8
0
6
CONTINUOUS
10
67
20
1.2
11
67
21
15.2
0
LINE
8
0
6
CONTINUOUS
10
67
20
15.2
11
53
21
15.2
0
LINE
8
0
6
CONTINUOUS
10
53
20
15.2
11
53
21
1.2
0
LINE
8
0
6
CONTINUOUS
10
53
20
21.2
11
67
21
21.2
0
LINE
8
0
6
CONTINUOUS
10
67
20
21.2
11
67
21
35.2
0
LINE
8
0
6
CONTINUOUS
10
67
20
35.2
11
53
21
35.2
0
LINE
8
0
6
CONTINUOUS
10
53
20
35.2
11
53
21
21.2
0
LINE
8
0
6
CONTINUOUS
10
53
20
41.2
11
67
21
41.2
0
LINE
8
0
6
CONTINUOUS
10
67
20
41.2
11
67
21
55.2
0
LINE
8
0
6
CONTINUOUS
10
67
20
55.2
11
53
21
55.2
0
LINE
8
0
6
CONTINUOUS
10
53
20
55.2
11
53
21
41.2
0
LINE
8
0
6
CONTINUOUS
10
53
20
61.2
11
67
21
61.2
0
LINE
8
0
6
CONTINUOUS
10
67
20
61.2
11
67
21
75.2
0
LINE
8
0
6
CONTINUOUS
10
67
20
75.2
11
53
21
75.2
0
LINE
8
0
6
CONTINUOUS
10
53
20
75.2
11
53
21
61.2
0
LINE
8
0
6
CONTINUOUS
10
73
20
-5.6
11
87
21
-5.6
0
LINE
8
0
6
CONTINUOUS
10
87
20
-5.6
11
87
21
8.4
0
LINE
8
0
6
CONTINUOUS
10
87
20
8.4
11
73
21
8.4
0
LINE
8
0
6
CONTINUOUS
10
73
20
8.4
11
73
21
-5.6
0
LINE
8
0
6
CONTINUOUS
10
73
20
14.4
11
87
21
14.4
0
LINE
8
0
6
CONTINUOUS
10
87
20
14.4
11
87
21
28.4
0
LINE
8
0
6
CONTINUOUS
10
87
20
28.4
11
73
21
28.4
0
LINE
8
0
6
CONTINUOUS
10
73
20
28.4
11
73
21
14.4
0
LINE
8
0
6
CONTINUOUS
10
73
20
34.4
11
87
21
34.4
0
LINE
8
0
6
CONTINUOUS
10
87
20
34.4
11
87
21
48.4
0
LINE
8
0
6
CONTINUOUS
10
87
20
48.4
11
73
21
48.4
0
LINE
8
0
6
CONTINUOUS
10
73
20
48.4
11
73
21
34.4
0
LINE
8
0
6
CONTINUOUS
10
73
20
54.4
11
87
21
54.4
0
LINE
8
0
6
CONTINUOUS
10
87
20
54.4
11
87
21
68.4
0
LINE
8
0
6
CONTINUOUS
10
87
20
68.4
11
73
21
68.4
0
LINE
8
0
6
CONTINUOUS
10
73
20
68.4
11
73
21
54.4
0
LINE
8
0
6
CONTINUOUS
10
93
20
-9.1
11
107
21
-9.1
0
LINE
8
0
6
CONTINUOUS
10
107
20
-9.1
11
107
21
4.9
0
LINE
8
0
6
CONTINUOUS
10
107
20
4.9
11
93
21
4.9
0
LINE
8
0
6
CONTINUOUS
10
93
20
4.9
11
93
21
-9.1
0
LINE
8
0
6
CONTINUOUS
10
93
20
10.9
11
107
21
10.9
0
LINE
8
0
6
CONTINUOUS
10
107
20
10.9
11
107
21
24.9
0
LINE
8
0
6
CONTINUOUS
10
107
20
24.9
11
93
21
24.9
0
LINE
8
0
6
CONTINUOUS
10
93
20
24.9
11
93
21
10.9
0
LINE
8
0
6
CONTINUOUS
10
93
20
30.9
11
107
21
30.9
0
LINE
8
0
6
CONTINUOUS
10
107
20
30.9
11
107
21
44.9
0
LINE
8
0
6
CONTINUOUS
10
107
20
44.9
11
93
21
44.9
0
LINE
8
0
6
CONTINUOUS
10
93
20
44.9
11
93
21
30.9
0
LINE
8
0
6
CONTINUOUS
10
93
20
50.9
11
107
21
50.9
0
LINE
8
0
6
CONTINUOUS
10
107
20
50.9
11
107
21
64.9
0
LINE
8
0
6
CONTINUOUS
10
107
20
64.9
11
93
21
64.9
0
LINE
8
0
6
CONTINUOUS
10
93
20
64.9
11
93
21
50.9
0
LINE
8
0
6
CONTINUOUS
10
73
20
-25.1
11
87
21
-25.1
0
LINE
8
0
6
CONTINUOUS
10
87
20
-25.1
11
87
21
-11.1
0
LINE
8
0
6
CONTINUOUS
10
87
20
-11.1
11
73
21
-11.1
0
LINE
8
0
6
CONTINUOUS
10
73
20
-11.1
11
73
21
-25.1
0
LINE
8
0
6
CONTINUOUS
10
93.4378222
20
-26.6621778
11
105.5621778
21
-33.6621778
0
LINE
8
0
6
CONTINUOUS
10
105.5621778
20
-33.6621778
11
112.5621778
21
-21.5378222
0
LINE
8
0
6
CONTINUOUS
10
112.5621778
20
-21.5378222
11
100.4378222
21
-14.5378222
0
LINE
8
0
6
CONTINUOUS
10
100.4378222
20
-14.5378222
11
93.4378222
21
-26.6621778
0
LINE
8
0
6
CONTINUOUS
10
106.2583303
20
-44.4564064
11
118.3826859
21
-51.4564064
0
LINE
8
0
6
CONTINUOUS
10
118.3826859
20
-51.4564064
11
125.3826859
21
-39.3320508
0
LINE
8
0
6
CONTINUOUS
10
125.3826859
20
-39.3320508
11
113.2583303
21
-32.3320508
0
LINE
8
0
6
CONTINUOUS
10
113.2583303
20
-32.3320508
11
106.2583303
21
-44.4564064
0
LINE
8
0
6
CONTINUOUS
10
116.2583303
20
-27.1358984
11
128.3826859
21
-34.1358984
0
LINE
8
0
6
CONTINUOUS
10
128.3826859
20
-34.1358984
11
135.3826859
21
-22.0115428
0
LINE
8
0
6
CONTINUOUS
10
135.3826859
20
-22.0115428
11
123.2583303
21
-15.0115428
0
LINE
8
0
6
CONTINUOUS
10
123.2583303
20
-15.0115428
11
116.2583303
21
-27.1358984
0
ENDSEC
0
EOF