0
SECTION
2
HEADER
9
$INSUNITS
70
4
0
ENDSEC
0
SECTION
2
TABLES
0
TABLE
2
LTYPE
0
LTYPE
72
65
70
0
2
CONTINUOUS
3
______
73
0
40
0
0
LTYPE
72
65
70
0
2
DASHED
3
_ _ _ 
73
2
40
7.5
49
5
49
-2.5
0
LTYPE
72
65
70
0
2
DOTTED
3
. . . 
73
2
40
1.5
49
0.5
49
-1
0
ENDTAB
0
TABLE
2
LAYER
0
ENDTAB
0
ENDSEC
0
SECTION
2
ENTITIES
0
LINE
8
0
6
CONTINUOUS
10
-9
20
-11
11
29
21
-11
0
LINE
8
0
6
CONTINUOUS
10
-11
20
-9
11
-11
21
90.2
0
LINE
8
0
6
CONTINUOUS
10
31
20
-9
11
31
21
-8.3
0
LINE
8
0
6
CONTINUOUS
10
33
20
-6.3
11
49
21
-6.3
0
LINE
8
0
6
CONTINUOUS
10
51
20
-4.3
11
51
21
-2.8
0
LINE
8
0
6
CONTINUOUS
10
51
20
-2.8
11
67
21
-2.8
0
LINE
8
0
6
CONTINUOUS
10
71
20
74.4
11
71
21
77.2
0
LINE
8
0
6
CONTINUOUS
10
69
20
79.2
11
51
21
79.2
0
LINE
8
0
6
CONTINUOUS
10
69
20
-27.1
11
69
21
-4.8
0
LINE
8
0
6
CONTINUOUS
10
91
20
70.9
11
91
21
72.4
0
LINE
8
0
6
CONTINUOUS
10
91
20
72.4
11
73
21
72.4
0
LINE
8
0
6
CONTINUOUS
10
111
20
-11.1
11
111
21
66.9
0
LINE
8
0
6
CONTINUOUS
10
109
20
68.9
11
93
21
68.9
0
LINE
8
0
6
CONTINUOUS
10
71
20
-29.1
11
89.1243558
21
-29.1
0
LINE
8
0
6
CONTINUOUS
10
90.1243558
20
-29.3679492
11
103.5621779
21
-37.1262794
0
LINE
8
0
6
CONTINUOUS
10
114.5621779
20
-18.0737206
11
110.96
21
-15.9940023
0
LINE
8
0
6
CONTINUOUS
10
102.5262795
20
-46.920508
11
118.1147367
21
-55.920508
0
LINE
8
0
6
CONTINUOUS
10
120.8467875
20
-55.1884572
11
139.8467875
21
-22.279492
0
LINE
8
0
6
CONTINUOUS
10
104.2942287
20
-39.8583302
11
101.7942287
21
-44.1884572
0
LINE
8
0
6
CONTINUOUS
10
139.1147367
20
-19.5474412
11
123.5262795
21
-10.5474412
0
LINE
8
0
6
CONTINUOUS
10
120.7942287
20
-11.279492
11
117.2942287
21
-17.3416698
0
ARC
8
0
6
CONTINUOUS
10
29
20
-9
40
2
50
270
51
0
0
ARC
8
0
6
CONTINUOUS
10
33
20
-8.3
40
2
50
90
51
180
0
ARC
8
0
6
CONTINUOUS
10
49
20
-4.3
40
2
50
270
51
0
0
ARC
8
0
6
CONTINUOUS
10
67
20
-4.8
40
2
50
0
51
90
0
ARC
8
0
6
CONTINUOUS
10
71
20
-27.1
40
2
50
180
51
270
0
ARC
8
0
6
CONTINUOUS
10
89.1243558
20
-31.1
40
2
50
59.9999999
51
90
0
ARC
8
0
6
CONTINUOUS
10
102.5621779
20
-38.8583302
40
2
50
329.9999999
51
59.9999999
0
ARC
8
0
6
CONTINUOUS
10
103.5262795
20
-45.1884572
40
2
50
149.9999999
51
239.9999999
0
ARC
8
0
6
CONTINUOUS
10
119.1147367
20
-54.1884572
40
2
50
239.9999999
51
329.9999999
0
ARC
8
0
6
CONTINUOUS
10
138.1147367
20
-21.279492
40
2
50
329.9999999
51
59.9999999
0
ARC
8
0
6
CONTINUOUS
10
122.5262795
20
-12.279492
40
2
50
59.9999999
51
149.9999999
0
ARC
8
0
6
CONTINUOUS
10
115.5621779
20
-16.3416698
40
2
50
239.9999999
51
329.9999999
0
ARC
8
0
6
CONTINUOUS
10
109
20
-11.1
40
2
50
348.5216583
51
0
0
ARC
8
0
6
CONTINUOUS
10
109
20
66.9
40
2
50
0
51
90
0
ARC
8
0
6
CONTINUOUS
10
93
20
70.9
40
2
50
180
51
270
0
ARC
8
0
6
CONTINUOUS
10
73
20
74.4
40
2
50
180
51
270
0
ARC
8
0
6
CONTINUOUS
10
69
20
77.2
40
2
50
0
51
90
0
ARC
8
0
6
CONTINUOUS
10
51
20
77.2
40
2
50
90
51
107.4576031
0
ARC
8
0
6
CONTINUOUS
10
-9
20
-9
40
2
50
180
51
270
0
LINE
8
0
6
CONTINUOUS
10
50.4
20
79.1078784
11
50.4
21
90.2
0
LINE
8
0
6
CONTINUOUS
10
48.4
20
92.2
11
-9
21
92.2
0
ARC
8
0
6
CONTINUOUS
10
48.4
20
90.2
40
2
50
0
51
90
0
ARC
8
0
6
CONTINUOUS
10
-9
20
90.2
40
2
50
90
51
180
0
LINE
8
0
6
CONTINUOUS
10
110.96
20
-11.497995
11
110.96
21
-15.9940023
0
LINE
8
0
6
CONTINUOUS
10
-8.75
20
-8.75
11
8.75
21
-8.75
0
LINE
8
0
6
CONTINUOUS
10
8.75
20
-8.75
11
8.75
21
8.75
0
LINE
8
0
6
CONTINUOUS
10
8.75
20
8.75
11
-8.75
21
8.75
0
LINE
8
0
6
CONTINUOUS
10
-8.75
20
8.75
11
-8.75
21
-8.75
0
LINE
8
0
6
CONTINUOUS
10
-8.75
20
11.25
11
8.75
21
11.25
0
LINE
8
0
6
CONTINUOUS
10
8.75
20
11.25
11
8.75
21
28.75
0
LINE
8
0
6
CONTINUOUS
10
8.75
20
28.75
11
-8.75
21
28.75
0
LINE
8
0
6
CONTINUOUS
10
-8.75
20
28.75
11
-8.75
21
11.25
0
LINE
8
0
6
CONTINUOUS
10
-8.75
20
31.25
11
8.75
21
31.25
0
LINE
8
0
6
CONTINUOUS
10
8.75
20
31.25
11
8.75
21
48.75
0
LINE
8
0
6
CONTINUOUS
10
8.75
20
48.75
11
-8.75
21
48.75
0
LINE
8
0
6
CONTINUOUS
10
-8.75
20
48.75
11
-8.75
21
31.25
0
LINE
8
0
6
CONTINUOUS
10
-8.75
20
51.25
11
8.75
21
51.25
0
LINE
8
0
6
CONTINUOUS
10
8.75
20
51.25
11
8.75
21
68.75
0
LINE
8
0
6
CONTINUOUS
10
8.75
20
68.75
11
-8.75
21
68.75
0
LINE
8
0
6
CONTINUOUS
10
-8.75
20
68.75
11
-8.75
21
51.25
0
LINE
8
0
6
CONTINUOUS
10
11.25
20
-8.75
11
28.75
21
-8.75
0
LINE
8
0
6
CONTINUOUS
10
28.75
20
-8.75
11
28.75
21
8.75
0
LINE
8
0
6
CONTINUOUS
10
28.75
20
8.75
11
11.25
21
8.75
0
LINE
8
0
6
CONTINUOUS
10
11.25
20
8.75
11
11.25
21
-8.75
0
LINE
8
0
6
CONTINUOUS
10
11.25
20
11.25
11
28.75
21
11.25
0
LINE
8
0
6
CONTINUOUS
10
28.75
20
11.25
11
28.75
21
28.75
0
LINE
8
0
6
CONTINUOUS
10
28.75
20
28.75
11
11.25
21
28.75
0
LINE
8
0
6
CONTINUOUS
10
11.25
20
28.75
11
11.25
21
11.25
0
LINE
8
0
6
CONTINUOUS
10
11.25
20
31.25
11
28.75
21
31.25
0
LINE
8
0
6
CONTINUOUS
10
28.75
20
31.25
11
28.75
21
48.75
0
LINE
8
0
6
CONTINUOUS
10
28.75
20
48.75
11
11.25
21
48.75
0
LINE
8
0
6
CONTINUOUS
10
11.25
20
48.75
11
11.25
21
31.25
0
LINE
8
0
6
CONTINUOUS
10
11.25
20
51.25
11
28.75
21
51.25
0
LINE
8
0
6
CONTINUOUS
10
28.75
20
51.25
11
28.75
21
68.75
0
LINE
8
0
6
CONTINUOUS
10
28.75
20
68.75
11
11.25
21
68.75
0
LINE
8
0
6
CONTINUOUS
10
11.25
20
68.75
11
11.25
21
51.25
0
LINE
8
0
6
CONTINUOUS
10
31.25
20
-4.05
11
48.75
21
-4.05
0
LINE
8
0
6
CONTINUOUS
10
48.75
20
-4.05
11
48.75
21
13.45
0
LINE
8
0
6
CONTINUOUS
10
48.75
20
13.45
11
31.25
21
13.45
0
LINE
8
0
6
CONTINUOUS
10
31.25
20
13.45
11
31.25
21
-4.05
0
LINE
8
0
6
CONTINUOUS
10
31.25
20
15.95
11
48.75
21
15.95
0
LINE
8
0
6
CONTINUOUS
10
48.75
20
15.95
11
48.75
21
33.45
0
LINE
8
0
6
CONTINUOUS
10
48.75
20
33.45
11
31.25
21
33.45
0
LINE
8
0
6
CONTINUOUS
10
31.25
20
33.45
11
31.25
21
15.95
0
LINE
8
0
6
CONTINUOUS
10
31.25
20
35.95
11
48.75
21
35.95
0
LINE
8
0
6
CONTINUOUS
10
48.75
20
35.95
11
48.75
21
53.45
0
LINE
8
0
6
CONTINUOUS
10
48.75
20
53.45
11
31.25
21
53.45
0
LINE
8
0
6
CONTINUOUS
10
31.25
20
53.45
11
31.25
21
35.95
0
LINE
8
0
6
CONTINUOUS
10
31.25
20
55.95
11
48.75
21
55.95
0
LINE
8
0
6
CONTINUOUS
10
48.75
20
55.95
11
48.75
21
73.45
0
LINE
8
0
6
CONTINUOUS
10
48.75
20
73.45
11
31.25
21
73.45
0
LINE
8
0
6
CONTINUOUS
10
31.25
20
73.45
11
31.25
21
55.95
0
LINE
8
0
6
CONTINUOUS
10
51.25
20
-0.55
11
68.75
21
-0.55
0
LINE
8
0
6
CONTINUOUS
10
68.75
20
-0.55
11
68.75
21
16.95
0
LINE
8
0
6
CONTINUOUS
10
68.75
20
16.95
11
51.25
21
16.95
0
LINE
8
0
6
CONTINUOUS
10
51.25
20
16.95
11
51.25
21
-0.55
0
LINE
8
0
6
CONTINUOUS
10
51.25
20
19.45
11
68.75
21
19.45
0
LINE
8
0
6
CONTINUOUS
10
68.75
20
19.45
11
68.75
21
36.95
0
LINE
8
0
6
CONTINUOUS
10
68.75
20
36.95
11
51.25
21
36.95
0
LINE
8
0
6
CONTINUOUS
10
51.25
20
36.95
11
51.25
21
19.45
0
LINE
8
0
6
CONTINUOUS
10
51.25
20
39.45
11
68.75
21
39.45
0
LINE
8
0
6
CONTINUOUS
10
68.75
20
39.45
11
68.75
21
56.95
0
LINE
8
0
6
CONTINUOUS
10
68.75
20
56.95
11
51.25
21
56.95
0
LINE
8
0
6
CONTINUOUS
10
51.25
20
56.95
11
51.25
21
39.45
0
LINE
8
0
6
CONTINUOUS
10
51.25
20
59.45
11
68.75
21
59.45
0
LINE
8
0
6
CONTINUOUS
10
68.75
20
59.45
11
68.75
21
76.95
0
LINE
8
0
6
CONTINUOUS
10
68.75
20
76.95
11
51.25
21
76.95
0
LINE
8
0
6
CONTINUOUS
10
51.25
20
76.95
11
51.25
21
59.45
0
LINE
8
0
6
CONTINUOUS
10
71.25
20
-7.35
11
88.75
21
-7.35
0
LINE
8
0
6
CONTINUOUS
10
88.75
20
-7.35
11
88.75
21
10.15
0
LINE
8
0
6
CONTINUOUS
10
88.75
20
10.15
11
71.25
21
10.15
0
LINE
8
0
6
CONTINUOUS
10
71.25
20
10.15
11
71.25
21
-7.35
0
LINE
8
0
6
CONTINUOUS
10
71.25
20
12.65
11
88.75
21
12.65
0
LINE
8
0
6
CONTINUOUS
10
88.75
20
12.65
11
88.75
21
30.15
0
LINE
8
0
6
CONTINUOUS
10
88.75
20
30.15
11
71.25
21
30.15
0
LINE
8
0
6
CONTINUOUS
10
71.25
20
30.15
11
71.25
21
12.65
0
LINE
8
0
6
CONTINUOUS
10
71.25
20
32.65
11
88.75
21
32.65
0
LINE
8
0
6
CONTINUOUS
10
88.75
20
32.65
11
88.75
21
50.15
0
LINE
8
0
6
CONTINUOUS
10
88.75
20
50.15
11
71.25
21
50.15
0
LINE
8
0
6
CONTINUOUS
10
71.25
20
50.15
11
71.25
21
32.65
0
LINE
8
0
6
CONTINUOUS
10
71.25
20
52.65
11
88.75
21
52.65
0
LINE
8
0
6
CONTINUOUS
10
88.75
20
52.65
11
88.75
21
70.15
0
LINE
8
0
6
CONTINUOUS
10
88.75
20
70.15
11
71.25
21
70.15
0
LINE
8
0
6
CONTINUOUS
10
71.25
20
70.15
11
71.25
21
52.65
0
LINE
8
0
6
CONTINUOUS
10
91.25
20
-10.85
11
108.75
21
-10.85
0
LINE
8
0
6
CONTINUOUS
10
108.75
20
-10.85
11
108.75
21
6.65
0
LINE
8
0
6
CONTINUOUS
10
108.75
20
6.65
11
91.25
21
6.65
0
LINE
8
0
6
CONTINUOUS
10
91.25
20
6.65
11
91.25
21
-10.85
0
LINE
8
0
6
CONTINUOUS
10
91.25
20
9.15
11
108.75
21
9.15
0
LINE
8
0
6
CONTINUOUS
10
108.75
20
9.15
11
108.75
21
26.65
0
LINE
8
0
6
CONTINUOUS
10
108.75
20
26.65
11
91.25
21
26.65
0
LINE
8
0
6
CONTINUOUS
10
91.25
20
26.65
11
91.25
21
9.15
0
LINE
8
0
6
CONTINUOUS
10
91.25
20
29.15
11
108.75
21
29.15
0
LINE
8
0
6
CONTINUOUS
10
108.75
20
29.15
11
108.75
21
46.65
0
LINE
8
0
6
CONTINUOUS
10
108.75
20
46.65
11
91.25
21
46.65
0
LINE
8
0
6
CONTINUOUS
10
91.25
20
46.65
11
91.25
21
29.15
0
LINE
8
0
6
CONTINUOUS
10
91.25
20
49.15
11
108.75
21
49.15
0
LINE
8
0
6
CONTINUOUS
10
108.75
20
49.15
11
108.75
21
66.65
0
LINE
8
0
6
CONTINUOUS
10
108.75
20
66.65
11
91.25
21
66.65
0
LINE
8
0
6
CONTINUOUS
10
91.25
20
66.65
11
91.25
21
49.15
0
LINE
8
0
6
CONTINUOUS
10
71.25
20
-26.85
11
88.75
21
-26.85
0
LINE
8
0
6
CONTINUOUS
10
88.75
20
-26.85
11
88.75
21
-9.35
0
LINE
8
0
6
CONTINUOUS
10
88.75
20
-9.35
11
71.25
21
-9.35
0
LINE
8
0
6
CONTINUOUS
10
71.25
20
-9.35
11
71.25
21
-26.85
0
LINE
8
0
6
CONTINUOUS
10
91.0472777
20
-27.3027223
11
106.2027223
21
-36.0527223
0
LINE
8
0
6
CONTINUOUS
10
106.2027223
20
-36.0527223
11
114.9527223
21
-20.8972777
0
LINE
8
0
6
CONTINUOUS
10
114.9527223
20
-20.8972777
11
99.7972777
21
-12.1472777
0
LINE
8
0
6
CONTINUOUS
10
99.7972777
20
-12.1472777
11
91.0472777
21
-27.3027223
0
LINE
8
0
6
CONTINUOUS
10
103.8677858
20
-45.0969509
11
119.0232304
21
-53.8469509
0
LINE
8
0
6
CONTINUOUS
10
119.0232304
20
-53.8469509
11
127.7732304
21
-38.6915063
0
LINE
8
0
6
CONTINUOUS
10
127.7732304
20
-38.6915063
11
112.6177858
21
-29.9415063
0
LINE
8
0
6
CONTINUOUS
10
112.6177858
20
-29.9415063
11
103.8677858
21
-45.0969509
0
LINE
8
0
6
CONTINUOUS
10
113.8677858
20
-27.7764429
11
129.0232304
21
-36.5264429
0
LINE
8
0
6
CONTINUOUS
10
129.0232304
20
-36.5264429
11
137.7732304
21
-21.3709983
0
LINE
8
0
6
CONTINUOUS
10
137.7732304
20
-21.3709983
11
122.6177858
21
-12.6209983
0
LINE
8
0
6
CONTINUOUS
10
122.6177858
20
-12.6209983
11
113.8677858
21
-27.7764429
0
ENDSEC
0
EOF