M48
; DRILL file {KiCad 9.0.7} date 2026-03-12T19:56:52+0100
; FORMAT={-:-/ absolute / metric / decimal}
; #@! TF.CreationDate,2026-03-12T19:56:52+01:00
; #@! TF.GenerationSoftware,Kicad,Pcbnew,9.0.7
; #@! TF.FileFunction,Plated,1,2,PTH
FMAT,2
METRIC
; #@! TA.AperFunction,Plated,PTH,ViaDrill
T1C0.300
; #@! TA.AperFunction,Plated,PTH,ComponentDrill
T2C0.900
; #@! TA.AperFunction,Plated,PTH,ComponentDrill
T3C0.991
; #@! TA.AperFunction,Plated,PTH,ComponentDrill
T4C1.092
; #@! TA.AperFunction,Plated,PTH,ComponentDrill
T5C1.600
%
G90
G05
T1
X118.5Y-78.425
X118.5Y-79.225
X118.5Y-98.425
X118.5Y-99.225
X118.5Y-118.425
X118.5Y-119.225
X118.5Y-138.425
X118.5Y-139.225
X138.5Y-78.425
X138.5Y-79.225
X138.5Y-98.425
X138.5Y-99.225
X138.5Y-118.425
X138.5Y-119.225
X138.5Y-138.425
X138.5Y-139.225
X158.5Y-73.725
X158.5Y-74.525
X158.5Y-93.725
X158.5Y-94.525
X158.5Y-113.725
X158.5Y-114.525
X158.5Y-133.725
X158.5Y-134.525
X178.5Y-70.225
X178.5Y-71.025
X178.5Y-90.225
X178.5Y-91.025
X178.5Y-110.225
X178.5Y-111.025
X178.5Y-130.225
X178.5Y-131.025
X190.0Y-135.5
X190.5Y-140.5
X198.5Y-77.025
X198.5Y-77.825
X198.5Y-97.025
X198.5Y-97.825
X198.5Y-117.025
X198.5Y-117.825
X198.5Y-137.025
X198.5Y-137.825
X198.5Y-156.525
X198.5Y-157.325
X218.5Y-80.525
X218.5Y-81.325
X218.5Y-100.525
X218.5Y-101.325
X218.5Y-120.525
X218.5Y-121.325
X218.5Y-140.525
X218.5Y-141.325
X219.562Y-162.806
X219.962Y-162.113
X232.383Y-180.6
X232.783Y-179.907
X242.383Y-163.28
X242.783Y-162.587
T3
X114.69Y-84.85
X114.69Y-104.85
X114.69Y-124.85
X114.69Y-144.85
X122.31Y-84.85
X122.31Y-104.85
X122.31Y-124.85
X122.31Y-144.85
X134.69Y-84.85
X134.69Y-104.85
X134.69Y-124.85
X134.69Y-144.85
X142.31Y-84.85
X142.31Y-104.85
X142.31Y-124.85
X142.31Y-144.85
X154.69Y-80.15
X154.69Y-100.15
X154.69Y-120.15
X154.69Y-140.15
X162.31Y-80.15
X162.31Y-100.15
X162.31Y-120.15
X162.31Y-140.15
X174.69Y-76.65
X174.69Y-96.65
X174.69Y-116.65
X174.69Y-136.65
X182.31Y-76.65
X182.31Y-96.65
X182.31Y-116.65
X182.31Y-136.65
X194.69Y-83.45
X194.69Y-103.45
X194.69Y-123.45
X194.69Y-143.45
X194.69Y-162.95
X202.31Y-83.45
X202.31Y-103.45
X202.31Y-123.45
X202.31Y-143.45
X202.31Y-162.95
X213.45Y-165.772
X214.69Y-86.95
X214.69Y-106.95
X214.69Y-126.95
X214.69Y-146.95
X220.05Y-169.582
X222.31Y-86.95
X222.31Y-106.95
X222.31Y-126.95
X222.31Y-146.95
X226.271Y-183.566
X232.87Y-187.376
X236.271Y-166.246
X242.87Y-170.056
T4
X112.83Y-47.13
X112.83Y-62.37
X115.37Y-47.13
X115.37Y-62.37
X117.91Y-47.13
X117.91Y-62.37
X120.45Y-47.13
X120.45Y-62.37
X122.99Y-47.13
X122.99Y-62.37
X125.53Y-47.13
X125.53Y-62.37
X128.07Y-47.13
X128.07Y-62.37
X130.61Y-47.13
X130.61Y-62.37
X133.15Y-47.13
X133.15Y-62.37
X135.69Y-47.13
X135.69Y-62.37
X138.23Y-47.13
X138.23Y-62.37
X140.77Y-47.13
X140.77Y-62.37
T5
X113.5Y-70.2
X113.5Y-90.2
X113.5Y-110.2
X113.5Y-130.2
X123.5Y-70.2
X123.5Y-90.2
X123.5Y-110.2
X123.5Y-130.2
X133.5Y-70.2
X133.5Y-90.2
X133.5Y-110.2
X133.5Y-130.2
X143.5Y-70.2
X143.5Y-90.2
X143.5Y-110.2
X143.5Y-130.2
X153.5Y-65.5
X153.5Y-85.5
X153.5Y-105.5
X153.5Y-125.5
X163.5Y-65.5
X163.5Y-85.5
X163.5Y-105.5
X163.5Y-125.5
X173.5Y-62.0
X173.5Y-82.0
X173.5Y-102.0
X173.5Y-122.0
X183.5Y-62.0
X183.5Y-82.0
X183.5Y-102.0
X183.5Y-122.0
X193.5Y-68.8
X193.5Y-88.8
X193.5Y-108.8
X193.5Y-128.8
X193.5Y-148.3
X203.5Y-68.8
X203.5Y-88.8
X203.5Y-108.8
X203.5Y-128.8
X203.5Y-148.3
X213.5Y-72.3
X213.5Y-92.3
X213.5Y-112.3
X213.5Y-132.3
X219.745Y-152.49
X223.5Y-72.3
X223.5Y-92.3
X223.5Y-112.3
X223.5Y-132.3
X228.405Y-157.49
X232.565Y-170.284
X241.226Y-175.284
X242.565Y-152.964
X251.226Y-157.964
T2
G00X157.4Y-46.45
M15
G01X156.8Y-46.45
M16
G05
G00X157.4Y-51.05
M15
G01X156.8Y-51.05
M16
G05
G00X158.5Y-46.45
M15
G01X157.9Y-46.45
M16
G05
G00X158.5Y-51.05
M15
G01X157.9Y-51.05
M16
G05
G00X162.5Y-46.45
M15
G01X161.9Y-46.45
M16
G05
G00X162.5Y-51.05
M15
G01X161.9Y-51.05
M16
G05
G00X165.5Y-46.45
M15
G01X164.9Y-46.45
M16
G05
G00X165.5Y-51.05
M15
G01X164.9Y-51.05
M16
G05
M30
