M48
; DRILL file {KiCad 9.0.7} date 2026-03-12T19:56:52+0100
; FORMAT={-:-/ absolute / metric / decimal}
; #@! TF.CreationDate,2026-03-12T19:56:52+01:00
; #@! TF.GenerationSoftware,Kicad,Pcbnew,9.0.7
; #@! TF.FileFunction,NonPlated,1,2,NPTH
FMAT,2
METRIC
; #@! TA.AperFunction,NonPlated,NPTH,ComponentDrill
T1C1.500
; #@! TA.AperFunction,NonPlated,NPTH,ComponentDrill
T2C1.900
; #@! TA.AperFunction,NonPlated,NPTH,ComponentDrill
T3C3.000
; #@! TA.AperFunction,NonPlated,NPTH,ComponentDrill
T4C5.000
%
G90
G05
T1
X159.8Y-48.75
X166.8Y-48.75
T2
X113.0Y-75.35
X113.0Y-95.35
X113.0Y-115.35
X113.0Y-135.35
X124.0Y-75.35
X124.0Y-95.35
X124.0Y-115.35
X124.0Y-135.35
X133.0Y-75.35
X133.0Y-95.35
X133.0Y-115.35
X133.0Y-135.35
X144.0Y-75.35
X144.0Y-95.35
X144.0Y-115.35
X144.0Y-135.35
X153.0Y-70.65
X153.0Y-90.65
X153.0Y-110.65
X153.0Y-130.65
X164.0Y-70.65
X164.0Y-90.65
X164.0Y-110.65
X164.0Y-130.65
X173.0Y-67.15
X173.0Y-87.15
X173.0Y-107.15
X173.0Y-127.15
X184.0Y-67.15
X184.0Y-87.15
X184.0Y-107.15
X184.0Y-127.15
X193.0Y-73.95
X193.0Y-93.95
X193.0Y-113.95
X193.0Y-133.95
X193.0Y-153.45
X204.0Y-73.95
X204.0Y-93.95
X204.0Y-113.95
X204.0Y-133.95
X204.0Y-153.45
X213.0Y-77.45
X213.0Y-97.45
X213.0Y-117.45
X213.0Y-137.45
X216.737Y-156.7
X224.0Y-77.45
X224.0Y-97.45
X224.0Y-117.45
X224.0Y-137.45
X226.263Y-162.2
X229.557Y-174.494
X239.084Y-179.994
X239.557Y-157.174
X249.084Y-162.674
T3
X113.5Y-79.1
X113.5Y-99.1
X113.5Y-119.1
X113.5Y-139.1
X118.5Y-81.3
X118.5Y-101.3
X118.5Y-121.3
X118.5Y-141.3
X123.5Y-79.1
X123.5Y-99.1
X123.5Y-119.1
X123.5Y-139.1
X133.5Y-79.1
X133.5Y-99.1
X133.5Y-119.1
X133.5Y-139.1
X138.5Y-81.3
X138.5Y-101.3
X138.5Y-121.3
X138.5Y-141.3
X143.5Y-79.1
X143.5Y-99.1
X143.5Y-119.1
X143.5Y-139.1
X153.5Y-74.4
X153.5Y-94.4
X153.5Y-114.4
X153.5Y-134.4
X158.5Y-76.6
X158.5Y-96.6
X158.5Y-116.6
X158.5Y-136.6
X163.5Y-74.4
X163.5Y-94.4
X163.5Y-114.4
X163.5Y-134.4
X173.5Y-70.9
X173.5Y-90.9
X173.5Y-110.9
X173.5Y-130.9
X178.5Y-73.1
X178.5Y-93.1
X178.5Y-113.1
X178.5Y-133.1
X183.5Y-70.9
X183.5Y-90.9
X183.5Y-110.9
X183.5Y-130.9
X193.5Y-77.7
X193.5Y-97.7
X193.5Y-117.7
X193.5Y-137.7
X193.5Y-157.2
X198.5Y-79.9
X198.5Y-99.9
X198.5Y-119.9
X198.5Y-139.9
X198.5Y-159.4
X203.5Y-77.7
X203.5Y-97.7
X203.5Y-117.7
X203.5Y-137.7
X203.5Y-157.2
X213.5Y-81.2
X213.5Y-101.2
X213.5Y-121.2
X213.5Y-141.2
X215.295Y-160.198
X218.5Y-83.4
X218.5Y-103.4
X218.5Y-123.4
X218.5Y-143.4
X218.525Y-164.603
X223.5Y-81.2
X223.5Y-101.2
X223.5Y-121.2
X223.5Y-141.2
X223.955Y-165.198
X228.115Y-177.992
X231.346Y-182.397
X236.776Y-182.992
X238.115Y-160.671
X241.346Y-165.077
X246.776Y-165.671
T4
X118.5Y-75.35
X118.5Y-95.35
X118.5Y-115.35
X118.5Y-135.35
X138.5Y-75.35
X138.5Y-95.35
X138.5Y-115.35
X138.5Y-135.35
X158.5Y-70.65
X158.5Y-90.65
X158.5Y-110.65
X158.5Y-130.65
X178.5Y-67.15
X178.5Y-87.15
X178.5Y-107.15
X178.5Y-127.15
X198.5Y-73.95
X198.5Y-93.95
X198.5Y-113.95
X198.5Y-133.95
X198.5Y-153.45
X218.5Y-77.45
X218.5Y-97.45
X218.5Y-117.45
X218.5Y-137.45
X221.5Y-159.45
X234.321Y-177.244
X244.321Y-159.924
M30
